<?xml version="1.0" encoding="utf-8"?>
<svg viewBox="0 0 512 512" xmlns="http://www.w3.org/2000/svg">
  <path d="M151.33 280.62l2.36-.03-.58 1.92.95-1.36c1.61 3.55 5.03 5.75 7.49 8.67-2 12.7-3.84 25.6-2.48 38.46.58 3.24 1.36 6.82 4.03 9.02 1.64 1.31 3.87 1.24 5.79.65 1-.36 2-.72 3-1.07 2.13-1.16 4.09-2.6 5.95-4.13 4.77-3.94 9.36-8.28 13.08-13.23l.71.1-.13-1.16 1.1.1-.19-.71 1.42-1.38c.82.05 1.64.09 2.46.14.28 1.67 1.99 2.41 3.02 3.59.25-.38.73-1.14.98-1.52l-.18 1.58c4.85 2.84 9.79 5.6 15.02 7.68 1.61.78 3.26 1.46 4.96 2.02 1 .35 2 .71 3 1.07 1 .33 2 .65 3.02.94 1.02.33 2.04.67 3.06 1.01 1.3.35 2.61.64 3.94.93 1.72.78 3.63.78 5.5.81l-.13.74c2.06.19 4.13.25 6.2.18l-.28.71c8.16.51 16.38.56 24.52-.09l-.92-2.51c.77 3.36 4.3 1.41 6.53 1.62l-.18-.78c1.41.01 2.81-.01 4.22-.02l-.19-.88c1.5-.13 3.21.18 4.5-.82 1.91-.43 3.82-.93 5.74-1.33l-.38-.9h3.2c-.01-.21-.02-.63-.03-.84 1.38-.02 2.59-.45 3.63-1.31l1.15.44c.1-.39.31-1.17.42-1.56.47.16 1.42.48 1.9.64l-.22-1.19c3.84-.37 6.77-3.21 10.3-4.52l-.08-.92c.32.06.97.19 1.29.25 1.33-.96 2.66-1.91 3.99-2.87 1.19-.51 2.14-1.37 3.04-2.28.99.06 1.99.12 2.99.19-.17.31-.53.94-.71 1.25 6.36 6.98 12.71 14.25 20.94 19.1 1.01.31 2.03.62 3.05.94.85.16 2.53.47 3.37.63l-.02-.81c1.43-.18 3.31-.33 3.44-2.26l1.05-.2c-.13-.44-.39-1.34-.52-1.79l1.3-.02c-.03-.76-.08-2.29-.1-3.06l.83.09c.31-3.05.36-6.12.25-9.18l.57.3c.01-1.05.02-3.16.03-4.21l-.59.06c-.08-4.81.6-9.77-.88-14.43.03-2.55-.17-5.12-.94-7.56-.16-1.92-.32-3.82-.53-5.72 2.48-2.67 5.18-5.14 7.54-7.92.54-.91 1.61-2.73 2.15-3.64.18 2.43.59 4.87 1.43 7.17 3.97 11.05 7.79 22.15 11.76 33.2.32 1.2 1.17 2.62.28 3.8-10.41 18.09-22.1 35.52-35.83 51.28-13.51 15.33-29.13 29.37-47.8 38.08-10.54 4.75-22.25 7.97-33.88 6.48-17.39 1.93-34.31-5.44-48.56-14.8-25.71-17.41-45.14-42.41-61.52-68.43-2.7-4.01-4.79-8.4-7.65-12.3-.14-.7-.43-2.11-.58-2.82.85-.97 1.23-2.13 1.11-3.49l.89.11c-.01-.77-.03-2.32-.05-3.09l.96.1c.26-1.62.78-3.17 1.32-4.7.37-.99.72-1.98 1.06-2.97.33-.99.66-1.99 1-2.97.56-1.09.83-2.25.83-3.49l.66.06c.37-1.57.86-3.1 1.37-4.63.38-.99.75-1.98 1.1-2.98.34-1 .68-1.99 1.03-2.99l1.02-2.97c.54-1.1.82-2.26.81-3.49l1.17-.08-.65-1.7m28.74 59.41c-4.31 3.26-9.84 3.96-15.03 4.72l-2.06 2.18c3.59 7.33 9.28 13.3 14.31 19.63 3.64 4.7 7.97 8.77 12.16 12.96 9.42 9.91 20.59 18.09 32.65 24.51 10.72 5.58 22.81 8.56 34.93 7.62 12.19.99 24.09-3.02 34.78-8.56 15.84-8.51 29.11-20.97 41.02-34.29 5.72-7.15 12.27-13.84 16.38-22.11-4.18-3.66-10.35-2.37-15-5.19-6.71-3.9-11.57-10.26-18.15-14.37-2.82.95-5.6 2.05-8.17 3.55-8.02 4.65-16.92 7.48-25.78 10.03-11.44 3.14-23.39 2.94-35.14 2.65-10.48-.68-20.73-3.36-30.52-7.05-7.03-2.64-13.34-6.88-20.53-9.12-5.72 3.72-10.42 8.74-15.85 12.84z" opacity=".18"/>
  <g transform="matrix(0.487044, 0, 0, 0.487044, 21.482487, 0.883638)" style="">
    <g transform="translate(0.000000,511.000000) scale(0.100000,-0.100000)">
      <path d="M3647,4394.1c-5.8-25-73.1-440.5-148.1-921.3c-75-480.8-140.4-879-146.2-884.8c-3.8-3.9-271.2,78.9-594.3,186.6c-405.8,134.6-584.7,186.6-584.7,169.3c0-15.4,21.2-288.5,48.1-607.8c26.9-319.3,46.2-582.8,44.2-584.7c-3.8-3.9-457.8,92.3-1009.8,209.6c-553.9,119.3-1005.9,213.5-1005.9,211.6c0-3.8,303.9-375.1,675.1-827.1c371.2-450.1,671.3-821.3,667.4-825.1c-1.9-1.9-255.8-111.6-559.7-242.3C509.9,54.9,481.1,39.6,513.8,10.7C533-8.5,752.3-212.4,1000.4-443.2c248.1-230.8,452-427,452-432.8c0-7.7-302-278.9-673.2-603.9c-369.3-325.1-675.1-600.1-679-607.8c-3.8-9.6,34.6-17.3,86.6-19.2c284.7-3.8,1688.7-107.7,1684.9-123.1c-1.9-11.6-242.3-459.7-534.7-998.3c-292.4-536.6-527-980.9-525.1-984.8c3.8-3.8,442.4,205.8,973.2,465.4l965.5,473.2l100-86.6c321.2-269.3,761.7-477,1213.7-575.1c263.5-55.8,819.4-61.6,1081-9.6c442.4,88.5,865.5,273.1,1173.3,513.5c294.3,228.9,125,257.7,1365.6-228.9c590.5-232.7,1079-421.2,1080.9-417.4c3.8,3.8-278.9,428.9-629,944.4c-348.1,517.4-632.8,940.5-629,944.4c1.9,1.9,263.5,101.9,579,217.3c317.4,117.3,578.9,217.4,584.7,221.2c3.8,5.8-161.6,205.8-369.3,446.2c-207.7,240.4-377,442.4-377,450.1c0,7.7,446.2,240.4,990.5,519.3c546.3,277,988.6,507.8,984.8,513.6c-5.8,3.8-480.8,88.5-1059.8,186.6c-577,98.1-1055.9,182.7-1059.8,188.5c-5.8,5.8,115.4,267.3,269.3,582.8c207.7,428.9,273.1,578.9,255.8,590.5c-13.5,7.7-171.2,15.4-352,17.3c-178.9,1.9-448.1,7.7-598.2,15.4l-271.2,11.5l219.3,913.6c119.3,502,217.3,915.5,217.3,919.4c0,1.9-334.7-219.3-744.4-492.4c-411.6-273.1-755.9-502-767.4-509.7c-11.5-7.7-105.8,194.3-246.2,530.8c-125,300.1-232.7,555.9-240.4,567.4c-9.6,15.4-153.9-117.3-430.8-398.1l-417.4-423.1l-53.9,80.8c-30.8,44.2-257.7,392.4-503.9,773.2c-246.2,380.8-450.1,696.3-453.9,700.1C3658.5,4436.4,3652.8,4419.1,3647,4394.1z M4327.9-510.6c0-23.1-227-113.5-377-151.9c-180.8-46.2-434.7-50-594.3-9.6c-632.8,165.4-896.3,859.8-584.7,1546.4l57.7,125l748.2-748.2C3991.3-162.4,4327.9-504.8,4327.9-510.6z M6674.4,870.5c161.6-357.8,171.2-752.1,26.9-1048.3c-69.3-142.3-252-330.8-388.5-403.9C6008.9-743.3,5603.1-741.4,5230-574c-61.6,28.9-113.5,55.8-113.5,63.5c0,11.6,1484.9,1502.2,1496.4,1502.2C6616.7,991.6,6643.7,937.8,6674.4,870.5z M6385.9-1851.1c0-28.9-132.7-236.6-211.6-330.8c-86.6-103.9-302-273.1-463.5-361.6c-146.2-82.7-475.1-188.5-669.3-217.3c-228.9-32.7-640.5-13.5-848.2,40.4c-352,92.3-642.4,253.9-861.7,478.9c-115.4,117.3-228.9,277-265.4,373.1c-11.5,30.8,75,32.7,1654.1,32.7C5635.8-1835.8,6385.9-1843.5,6385.9-1851.1z" style="fill: rgb(254, 254, 254); stroke: rgb(213, 213, 213); stroke-miterlimit: 9; stroke-width: 123.192px;"/>
    </g>
  </g>
</svg>