<?xml version="1.0" encoding="utf-8"?>
<svg viewBox="0 0 480 480" xmlns="http://www.w3.org/2000/svg">
  <defs>
    <filter id="b" color-interpolation-filters="sRGB">
      <feComposite in2="SourceGraphic" k2="1.1" operator="arithmetic" result="composite1"/>
      <feColorMatrix in="composite1" result="colormatrix1" type="saturate" values="0"/>
      <feFlood flood-color="#000" flood-opacity=".2" result="flood1"/>
      <feBlend in="flood1" in2="colormatrix1" mode="multiply" result="blend1"/>
      <feBlend in2="blend1" mode="screen" result="blend2"/>
      <feColorMatrix in="blend2" result="colormatrix2" type="saturate" values="1"/>
      <feComposite in="colormatrix2" in2="SourceGraphic" k2="1" operator="in" result="composite2"/>
    </filter>
    <filter id="d" color-interpolation-filters="sRGB">
      <feComposite in2="SourceGraphic" k2="1.1" operator="arithmetic" result="composite1"/>
      <feColorMatrix in="composite1" result="colormatrix1" type="saturate" values="0"/>
      <feFlood flood-color="#000" flood-opacity=".2" result="flood1"/>
      <feBlend in="flood1" in2="colormatrix1" mode="multiply" result="blend1"/>
      <feBlend in2="blend1" mode="screen" result="blend2"/>
      <feColorMatrix in="blend2" result="colormatrix2" type="saturate" values="1"/>
      <feComposite in="colormatrix2" in2="SourceGraphic" k2="1" operator="in" result="composite2"/>
    </filter>
    <filter id="e" color-interpolation-filters="sRGB">
      <feComposite in2="SourceGraphic" k2="1.1" operator="arithmetic" result="composite1"/>
      <feColorMatrix in="composite1" result="colormatrix1" type="saturate" values="0"/>
      <feFlood flood-color="#000" flood-opacity=".2" result="flood1"/>
      <feBlend in="flood1" in2="colormatrix1" mode="multiply" result="blend1"/>
      <feBlend in2="blend1" mode="screen" result="blend2"/>
      <feColorMatrix in="blend2" result="colormatrix2" type="saturate" values="1"/>
      <feComposite in="colormatrix2" in2="SourceGraphic" k2="1" operator="in" result="composite2"/>
    </filter>
    <filter id="c" color-interpolation-filters="sRGB">
      <feComposite in2="SourceGraphic" k2="1.1" operator="arithmetic" result="composite1"/>
      <feColorMatrix in="composite1" result="colormatrix1" type="saturate" values="0"/>
      <feFlood flood-color="#000" flood-opacity=".2" result="flood1"/>
      <feBlend in="flood1" in2="colormatrix1" mode="multiply" result="blend1"/>
      <feBlend in2="blend1" mode="screen" result="blend2"/>
      <feColorMatrix in="blend2" result="colormatrix2" type="saturate" values="1"/>
      <feComposite in="colormatrix2" in2="SourceGraphic" k2="1" operator="in" result="composite2"/>
    </filter>
    <filter id="a" color-interpolation-filters="sRGB">
      <feComposite in2="SourceGraphic" k2="1.1" operator="arithmetic" result="composite1"/>
      <feColorMatrix in="composite1" result="colormatrix1" type="saturate" values="0"/>
      <feFlood flood-color="#000" flood-opacity=".2" result="flood1"/>
      <feBlend in="flood1" in2="colormatrix1" mode="multiply" result="blend1"/>
      <feBlend in2="blend1" mode="screen" result="blend2"/>
      <feColorMatrix in="blend2" result="colormatrix2" type="saturate" values="1"/>
      <feComposite in="colormatrix2" in2="SourceGraphic" k2="1" operator="in" result="composite2"/>
    </filter>
  </defs>
  <path fill="none" d="M-1-1h482v482H-1z"/>
  <path fill="#ffcb5a" d="M232 8c123.68 0 224 93.121 224 208a196.786 196.786 0 01-40.64 119.441 212.027 212.027 0 01-39.758 40.079A216.398 216.398 0 01336 400.238a233.034 233.034 0 01-48 17.203 242.32 242.32 0 01-112 0 233.034 233.034 0 01-48-17.203 216.399 216.399 0 01-39.602-24.718 212.027 212.027 0 01-39.757-40.079A196.786 196.786 0 018 216C8 101.121 108.32 8 232 8zm0 0" filter="url(#a)"/>
  <g fill="#ce893d" filter="url(#b)">
    <path d="M415.36 335.441A196.786 196.786 0 00456 216v48a196.756 196.756 0 01-40 118.559V336l-.64-.559zm0 0M376 376v47.281a217.08 217.08 0 01-39.922 24.88L336 448v-47.762a216.398 216.398 0 0039.602-24.718l.398.48zm0 0M288.32 465.36A241.198 241.198 0 01232 472v-48a238.62 238.62 0 0056-6.559V464l.32 1.36zm0 0M176 417.441V464l-.32 1.36a230.787 230.787 0 01-47.758-17.2L128 448v-47.762a233.034 233.034 0 0048 17.203zm0 0M48.64 335.441a212.027 212.027 0 0039.758 40.079L88 376v47.281a211.796 211.796 0 01-40-40.722V336l.64-.559zm0 0"/>
  </g>
  <g fill="#e6a71e" filter="url(#c)">
    <path d="M416 336v46.559a211.796 211.796 0 01-40 40.722V376l-.398-.48a212.027 212.027 0 0039.757-40.079L416 336zm0 0M336 448l.078.16a230.787 230.787 0 01-47.758 17.2L288 464v-46.559a233.034 233.034 0 0048-17.203V448zm0 0M232 424v48a241.198 241.198 0 01-56.32-6.64L176 464v-46.559A238.634 238.634 0 00232 424zm0 0M88.398 375.52A216.399 216.399 0 00128 400.238V448l-.078.16A221.413 221.413 0 0188 423.281V376l.398-.48zm0 0M8 216a196.786 196.786 0 0040.64 119.441L48 336v46.559A196.756 196.756 0 018 264v-48zm400 0c0-88.367-78.797-160-176-160S56 127.633 56 216s78.797 160 176 160 176-71.633 176-160z"/>
  </g>
  <path fill="#ffcb5a" d="M341.945 309.832l-10.937-11.664a121.664 121.664 0 0023.465-30.016l14.015 7.696a136.84 136.84 0 01-26.543 33.984zm0 0" filter="url(#d)"/>
  <path fill="#ffcb5a" d="M232 352c-83.816 0-152-61.008-152-136S148.184 80 232 80s152 61.008 152 136h-16c0-66.168-61.008-120-136-120S96 149.832 96 216s61.008 120 136 120c26.688.129 52.91-6.95 75.902-20.496l8.196 13.754A164.154 164.154 0 01232 352zm0 0" filter="url(#e)"/>
  <path fill="#404040" d="M232 384c101.465 0 184-75.367 184-168S333.465 48 232 48 48 123.367 48 216s82.535 168 184 168zm0-320c92.633 0 168 68.184 168 152s-75.367 152-168 152S64 299.816 64 216 139.367 64 232 64zm0 0"/>
  <path fill="#404040" d="M464 264v-54.398a8.543 8.543 0 00-.2-1C459.587 92.91 357.259 0 232 0 105.953 0 3.121 94.105.145 210.809c-.063.23-.11.46-.145.695V264c0 119.105 104.078 216 232 216s232-96.895 232-216zm-40 91.45v-18.345a211.362 211.362 0 0019.535-32.585A188.713 188.713 0 01424 355.45zM232 16c119.105 0 216 89.719 216 200s-96.895 200-216 200S16 326.281 16 216 112.895 16 232 16zM120 405.078v29.883a217.219 217.219 0 01-24-15.762v-28.398c7.707 5.23 15.723 10 24 14.277zm16 7.48a240.435 240.435 0 0032 11.016v31.457a223.92 223.92 0 01-32-11.941v-30.531zm48 14.762a247.971 247.971 0 0040 4.489v32a232.753 232.753 0 01-40-4.856V427.32zm56 4.489a247.971 247.971 0 0040-4.489v31.64a232.37 232.37 0 01-40 4.856V431.81zm56-8.235a240.435 240.435 0 0032-11.015v30.53a223.92 223.92 0 01-32 11.942v-31.457zm48-18.496a233.691 233.691 0 0024-14.246v28.367a217.888 217.888 0 01-24 15.73v-29.85zm-304-68v18.348a188.841 188.841 0 01-19.535-50.93A211.586 211.586 0 0040 337.106v-.028zm16 42.625v-23.215a225.64 225.64 0 0024 22.489v26.968a206.495 206.495 0 01-24-26.218v-.024zm328 26.219v-26.945a225.64 225.64 0 0024-22.489v23.239a206.495 206.495 0 01-24 26.218v-.023zm0 0"/>
  <g transform="matrix(3.137494, 0, 0, 2.912015, 142.804031, 126.931679)" style="">
    <g id="layer1" transform="translate(-2.77273, -4.55291)">
      <path style="overflow: visible; marker: none; opacity: 1; color: rgb(0, 0, 0); fill-opacity: 1; fill-rule: nonzero; stroke-dasharray: none; stroke-dashoffset: 0pt; stroke-opacity: 1; visibility: visible; display: inline; fill: none; stroke-width: 2.10222px; stroke-miterlimit: 3; stroke: rgb(57, 57, 57); stroke-linecap: round;" d="M 4.7272728,58.181818 L 14.909091,40.545454 C 14.909091,40.545454 29.454545,38.727272 22.181818,54.363636 L 4.7272728,58.181818 z " id="path6089"/>
      <path style="fill-opacity: 1; stroke-dasharray: 0.4, 0.4; stroke-dashoffset: 0pt; stroke-opacity: 1; fill: none; stroke-width: 2.10222px; stroke-miterlimit: 3; stroke: rgb(57, 57, 57); stroke-linecap: round;" id="path6093" d="M 20 46.727272 A 3 3.2727273 0 1 1  14,46.727272 A 3 3.2727273 0 1 1  20 46.727272 z" transform="translate(4.36364, -2)"/>
      <path style="fill-opacity: 1; stroke-dasharray: none; stroke-dashoffset: 0pt; stroke-opacity: 1; fill: none; stroke-width: 2.10222px; stroke-miterlimit: 3; stroke: rgb(57, 57, 57); stroke-linecap: round;" id="path7066" d="M 21.636363,16.181818 L 17.052352,15.078089 L 13.544381,18.228568 L 13.177553,13.527843 L 9.097247,11.165115 L 13.454545,9.3636369 L 14.440749,4.7529127 L 17.500536,8.3402624 L 22.190349,7.8534058 L 19.724103,11.871988 L 21.636363,16.181818 z " transform="translate(1.45455, 1.09091)"/>
      <path style="fill-opacity: 1; stroke-dasharray: none; stroke-dashoffset: 0pt; stroke-opacity: 1; fill: none; stroke-width: 2.10222px; stroke-miterlimit: 3; stroke: rgb(57, 57, 57); stroke-linecap: round;" id="path8037" d="M 31.636362,23.636364 L 29.856193,23.303143 L 28.572489,24.580697 L 28.339298,22.784684 L 26.727586,21.958595 L 28.363635,21.181818 L 28.651246,19.393713 L 29.895572,20.709652 L 31.685037,20.430632 L 30.818023,22.020703 L 31.636362,23.636364 z " transform="translate(1.45455, 1.09091)"/>
      <path style="fill-opacity: 1; stroke-dasharray: none; stroke-dashoffset: 0pt; stroke-opacity: 1; fill: none; stroke-width: 2.10222px; stroke-miterlimit: 3; stroke: rgb(57, 57, 57); stroke-linecap: round;" id="path8039" d="M 48.727274,17.272727 L 45.382077,16.769394 L 43.070999,19.23974 L 42.515975,15.90273 L 39.452373,14.468143 L 42.454547,12.909091 L 42.872215,9.5521209 L 45.282684,11.925584 L 48.604419,11.285449 L 47.091997,14.311382 L 48.727274,17.272727 z " transform="translate(1.45455, 1.09091)"/>
      <path style="fill-opacity: 1; stroke-dasharray: none; stroke-dashoffset: 0pt; stroke-opacity: 1; fill: none; stroke-width: 2.10222px; stroke-miterlimit: 3; stroke: rgb(57, 57, 57); stroke-linecap: round;" id="path8041" d="M 51.272727,33.272729 L 50.301089,33.213689 L 49.701617,33.980631 L 49.457514,33.038304 L 48.542862,32.70517 L 49.363636,32.18182 L 49.397822,31.20899 L 50.149192,31.827868 L 51.084972,31.55976 L 50.728569,32.465599 L 51.272727,33.272729 z " transform="translate(8.89091, -13.9181)"/>
      <path style="fill-opacity: 1; stroke-dasharray: none; stroke-dashoffset: 0pt; stroke-opacity: 1; fill: none; stroke-width: 2.10222px; stroke-miterlimit: 3; stroke: rgb(57, 57, 57); stroke-linecap: round;" id="path8043" d="M 42.909091,37.818182 L 40.752074,37.267018 L 39.075192,38.731454 L 38.932825,36.50969 L 37.021879,35.367417 L 39.090909,34.545455 L 39.586761,32.375055 L 41.007858,34.088819 L 43.225257,33.889712 L 42.034514,35.770838 L 42.909091,37.818182 z " transform="translate(1.45455, 1.09091)"/>
      <path style="fill-opacity: 1; stroke-dasharray: none; stroke-dashoffset: 0pt; stroke-opacity: 1; fill: none; stroke-width: 2.10222px; stroke-miterlimit: 3; stroke: rgb(57, 57, 57); stroke-linecap: round;" id="path8045" d="M 53.636364,46.727274 L 50.613178,46.603591 L 48.7974,49.023901 L 47.980814,46.110459 L 45.117855,45.131469 L 47.636364,43.454547 L 47.682736,40.429187 L 50.055846,42.306233 L 52.947464,41.415449 L 51.895618,44.25245 L 53.636364,46.727274 z " transform="translate(1.45455, 1.09091)"/>
      <path style="overflow: visible; marker: none; opacity: 1; color: rgb(0, 0, 0); fill-opacity: 1; fill-rule: nonzero; stroke-dasharray: none; stroke-dashoffset: 0pt; stroke-opacity: 1; visibility: visible; display: inline; fill: none; stroke-width: 2.10222px; stroke-miterlimit: 3; stroke: rgb(57, 57, 57); stroke-linecap: round;" d="M 18.90909,19.090909 L 22.727272,43.818182 L 29.454545,27.090909" id="path8057"/>
      <path style="overflow: visible; marker: none; opacity: 1; color: rgb(0, 0, 0); fill-opacity: 1; fill-rule: nonzero; stroke-dasharray: none; stroke-dashoffset: 0pt; stroke-opacity: 1; visibility: visible; display: inline; fill: none; stroke-width: 2.10222px; stroke-miterlimit: 3; stroke: rgb(57, 57, 57); stroke-linecap: round;" d="M 41.454545,23.090909 L 22.545454,43.636364 L 38,38.727273" id="path8059"/>
      <path style="overflow: visible; marker: none; opacity: 1; color: rgb(0, 0, 0); fill-opacity: 1; fill-rule: nonzero; stroke-dasharray: none; stroke-dashoffset: 0pt; stroke-opacity: 1; visibility: visible; display: inline; fill: none; stroke-width: 2.10222px; stroke-miterlimit: 3; stroke: rgb(57, 57, 57); stroke-linecap: round;" d="M 23.090908,43.818182 L 43.636363,45.636364" id="path8061"/>
      <path style="overflow: visible; marker: none; opacity: 1; color: rgb(0, 0, 0); fill-opacity: 1; fill-rule: nonzero; stroke-dasharray: none; stroke-dashoffset: 0pt; stroke-opacity: 1; visibility: visible; display: inline; fill: none; stroke-width: 2.10222px; stroke-miterlimit: 3; stroke: rgb(57, 57, 57); stroke-linecap: round;" d="M 21.818182,42.181818 C 22.060606,42.181818 22.060606,42.181818 21.818182,42.181818 z " id="path8063"/>
      <path style="overflow: visible; marker: none; opacity: 1; color: rgb(0, 0, 0); fill-opacity: 1; fill-rule: nonzero; stroke-dasharray: none; stroke-dashoffset: 0pt; stroke-opacity: 1; visibility: visible; display: inline; fill: none; stroke-width: 2.10222px; stroke-miterlimit: 3; stroke: rgb(57, 57, 57); stroke-linecap: round;" d="M 23.272727,42.909091 L 56.454545,20.363636" id="path8067"/>
    </g>
  </g>
</svg>