<?xml version="1.0" encoding="utf-8"?>
<svg viewBox="0 0 480 480" xmlns="http://www.w3.org/2000/svg">
  <defs>
    <filter id="b" color-interpolation-filters="sRGB">
      <feComposite in2="SourceGraphic" k2="1.1" operator="arithmetic" result="composite1"/>
      <feColorMatrix in="composite1" result="colormatrix1" type="saturate" values="0"/>
      <feFlood flood-color="#E4570E" flood-opacity=".957" result="flood1"/>
      <feBlend in="flood1" in2="colormatrix1" mode="multiply" result="blend1"/>
      <feBlend in2="blend1" mode="screen" result="blend2"/>
      <feColorMatrix in="blend2" result="colormatrix2" type="saturate" values="1"/>
      <feComposite in="colormatrix2" in2="SourceGraphic" k2="1" operator="in" result="composite2"/>
    </filter>
    <filter id="d" color-interpolation-filters="sRGB">
      <feComposite in2="SourceGraphic" k2="1.1" operator="arithmetic" result="composite1"/>
      <feColorMatrix in="composite1" result="colormatrix1" type="saturate" values="0"/>
      <feFlood flood-color="#E4570E" flood-opacity=".957" result="flood1"/>
      <feBlend in="flood1" in2="colormatrix1" mode="multiply" result="blend1"/>
      <feBlend in2="blend1" mode="screen" result="blend2"/>
      <feColorMatrix in="blend2" result="colormatrix2" type="saturate" values="1"/>
      <feComposite in="colormatrix2" in2="SourceGraphic" k2="1" operator="in" result="composite2"/>
    </filter>
    <filter id="e" color-interpolation-filters="sRGB">
      <feComposite in2="SourceGraphic" k2="1.1" operator="arithmetic" result="composite1"/>
      <feColorMatrix in="composite1" result="colormatrix1" type="saturate" values="0"/>
      <feFlood flood-color="#E4570E" flood-opacity=".957" result="flood1"/>
      <feBlend in="flood1" in2="colormatrix1" mode="multiply" result="blend1"/>
      <feBlend in2="blend1" mode="screen" result="blend2"/>
      <feColorMatrix in="blend2" result="colormatrix2" type="saturate" values="1"/>
      <feComposite in="colormatrix2" in2="SourceGraphic" k2="1" operator="in" result="composite2"/>
    </filter>
    <filter id="c" color-interpolation-filters="sRGB">
      <feComposite in2="SourceGraphic" k2="1.1" operator="arithmetic" result="composite1"/>
      <feColorMatrix in="composite1" result="colormatrix1" type="saturate" values="0"/>
      <feFlood flood-color="#E4570E" flood-opacity=".957" result="flood1"/>
      <feBlend in="flood1" in2="colormatrix1" mode="multiply" result="blend1"/>
      <feBlend in2="blend1" mode="screen" result="blend2"/>
      <feColorMatrix in="blend2" result="colormatrix2" type="saturate" values="1"/>
      <feComposite in="colormatrix2" in2="SourceGraphic" k2="1" operator="in" result="composite2"/>
    </filter>
    <filter id="a" color-interpolation-filters="sRGB">
      <feComposite in2="SourceGraphic" k2="1.1" operator="arithmetic" result="composite1"/>
      <feColorMatrix in="composite1" result="colormatrix1" type="saturate" values="0"/>
      <feFlood flood-color="#E4570E" flood-opacity=".957" result="flood1"/>
      <feBlend in="flood1" in2="colormatrix1" mode="multiply" result="blend1"/>
      <feBlend in2="blend1" mode="screen" result="blend2"/>
      <feColorMatrix in="blend2" result="colormatrix2" type="saturate" values="1"/>
      <feComposite in="colormatrix2" in2="SourceGraphic" k2="1" operator="in" result="composite2"/>
    </filter>
  </defs>
  <path fill="none" d="M-1-1h482v482H-1z"/>
  <path fill="#ffcb5a" d="M232 8c123.68 0 224 93.121 224 208a196.786 196.786 0 01-40.64 119.441 212.027 212.027 0 01-39.758 40.079A216.398 216.398 0 01336 400.238a233.034 233.034 0 01-48 17.203 242.32 242.32 0 01-112 0 233.034 233.034 0 01-48-17.203 216.399 216.399 0 01-39.602-24.718 212.027 212.027 0 01-39.757-40.079A196.786 196.786 0 018 216C8 101.121 108.32 8 232 8zm0 0" filter="url(#a)"/>
  <g fill="#ce893d" filter="url(#b)">
    <path d="M415.36 335.441A196.786 196.786 0 00456 216v48a196.756 196.756 0 01-40 118.559V336l-.64-.559zm0 0M376 376v47.281a217.08 217.08 0 01-39.922 24.88L336 448v-47.762a216.398 216.398 0 0039.602-24.718l.398.48zm0 0M288.32 465.36A241.198 241.198 0 01232 472v-48a238.62 238.62 0 0056-6.559V464l.32 1.36zm0 0M176 417.441V464l-.32 1.36a230.787 230.787 0 01-47.758-17.2L128 448v-47.762a233.034 233.034 0 0048 17.203zm0 0M48.64 335.441a212.027 212.027 0 0039.758 40.079L88 376v47.281a211.796 211.796 0 01-40-40.722V336l.64-.559zm0 0"/>
  </g>
  <g fill="#e6a71e" filter="url(#c)">
    <path d="M416 336v46.559a211.796 211.796 0 01-40 40.722V376l-.398-.48a212.027 212.027 0 0039.757-40.079L416 336zm0 0M336 448l.078.16a230.787 230.787 0 01-47.758 17.2L288 464v-46.559a233.034 233.034 0 0048-17.203V448zm0 0M232 424v48a241.198 241.198 0 01-56.32-6.64L176 464v-46.559A238.634 238.634 0 00232 424zm0 0M88.398 375.52A216.399 216.399 0 00128 400.238V448l-.078.16A221.413 221.413 0 0188 423.281V376l.398-.48zm0 0M8 216a196.786 196.786 0 0040.64 119.441L48 336v46.559A196.756 196.756 0 018 264v-48zm400 0c0-88.367-78.797-160-176-160S56 127.633 56 216s78.797 160 176 160 176-71.633 176-160z"/>
  </g>
  <path fill="#ffcb5a" d="M341.945 309.832l-10.937-11.664a121.664 121.664 0 0023.465-30.016l14.015 7.696a136.84 136.84 0 01-26.543 33.984zm0 0" filter="url(#d)"/>
  <path fill="#ffcb5a" d="M232 352c-83.816 0-152-61.008-152-136S148.184 80 232 80s152 61.008 152 136h-16c0-66.168-61.008-120-136-120S96 149.832 96 216s61.008 120 136 120c26.688.129 52.91-6.95 75.902-20.496l8.196 13.754A164.154 164.154 0 01232 352zm0 0" filter="url(#e)"/>
  <path fill="#404040" d="M232 384c101.465 0 184-75.367 184-168S333.465 48 232 48 48 123.367 48 216s82.535 168 184 168zm0-320c92.633 0 168 68.184 168 152s-75.367 152-168 152S64 299.816 64 216 139.367 64 232 64zm0 0"/>
  <path fill="#404040" d="M464 264v-54.398a8.543 8.543 0 00-.2-1C459.587 92.91 357.259 0 232 0 105.953 0 3.121 94.105.145 210.809c-.063.23-.11.46-.145.695V264c0 119.105 104.078 216 232 216s232-96.895 232-216zm-40 91.45v-18.345a211.362 211.362 0 0019.535-32.585A188.713 188.713 0 01424 355.45zM232 16c119.105 0 216 89.719 216 200s-96.895 200-216 200S16 326.281 16 216 112.895 16 232 16zM120 405.078v29.883a217.219 217.219 0 01-24-15.762v-28.398c7.707 5.23 15.723 10 24 14.277zm16 7.48a240.435 240.435 0 0032 11.016v31.457a223.92 223.92 0 01-32-11.941v-30.531zm48 14.762a247.971 247.971 0 0040 4.489v32a232.753 232.753 0 01-40-4.856V427.32zm56 4.489a247.971 247.971 0 0040-4.489v31.64a232.37 232.37 0 01-40 4.856V431.81zm56-8.235a240.435 240.435 0 0032-11.015v30.53a223.92 223.92 0 01-32 11.942v-31.457zm48-18.496a233.691 233.691 0 0024-14.246v28.367a217.888 217.888 0 01-24 15.73v-29.85zm-304-68v18.348a188.841 188.841 0 01-19.535-50.93A211.586 211.586 0 0040 337.106v-.028zm16 42.625v-23.215a225.64 225.64 0 0024 22.489v26.968a206.495 206.495 0 01-24-26.218v-.024zm328 26.219v-26.945a225.64 225.64 0 0024-22.489v23.239a206.495 206.495 0 01-24 26.218v-.023zm0 0"/>
  <g transform="matrix(0.692462, 0, 0, 0.601062, 97.199562, 89.264442)" style="">
    <path d="m167.05 44.991l-5.611 40.608-5.12 6.189-0.947 0.86-2.297 2.647-2.121 3.051-1.964 3.402-1.806 3.752-1.578 4.05-1.403 4.348-1.174 4.594-0.912 4.857-0.702 5.05-0.403 5.26-0.158 5.383 0.158 5.365 0.403 5.26 0.702 5.05 0.912 4.857 1.174 4.5941 1.403 4.348 1.578 4.051 1.806 3.769 1.964 3.384 2.121 3.051 2.297 2.648 2.42 2.209 2.56 1.789 1.297 0.701 1.351 0.596 1.385 0.474 1.367 0.333 1.403 0.193 1.438 0.07 1.42-0.07 1.403-0.193 1.385-0.333 1.368-0.474 1.35-0.596 1.315-0.701 2.542-1.789 2.42-2.209 2.297-2.648 2.121-3.051 1.999-3.384 1.771-3.769 1.596-4.051 1.402-4.348 1.158-4.5941 0.929-4.857 0.684-5.05 0.333-4.208-0.438 0.07c0.741-15.044-1-27.985-7.47-43.448l-2.823-4.98-1.262-1.806-2.297-2.648-2.42-2.209-2.542-1.788-1.315-0.702-1.017-0.455-2.209-4.594-5.243-37.908zm67.33 3.068l-8.469 42.958-1.298 0.701-2.559 1.789-2.42 2.209-2.297 2.648-1.245 1.805-2.84 4.98c-4.877 13.953-7.844 28.329-7.47 43.449l-0.438-0.07 0.333 4.208 0.684 5.05 0.929 4.857 1.175 4.593 1.403 4.349 1.578 4.05 1.788 3.77 1.981 3.384 2.122 3.051 2.297 2.647 2.42 2.21 2.559 1.788 1.298 0.701 1.35 0.597 1.368 0.473 1.385 0.333 1.403 0.193 1.42 0.07 1.438-0.07 1.402-0.193 1.385-0.333 1.368-0.473 1.35-0.597 1.298-0.701 2.56-1.788 2.419-2.21 2.297-2.647 2.122-3.051 1.964-3.384 1.806-3.77 1.578-4.05 1.402-4.349 1.175-4.593 0.93-4.857 0.683-5.05 0.404-5.26 0.157-5.383-0.157-5.366-0.404-5.26-0.683-5.049-0.93-4.8571-1.175-4.594-1.402-4.349-1.578-4.05-1.806-3.752-1.964-3.402-2.122-3.05-2.297-2.648-0.946-0.859-5.12-6.19-5.611-40.608zm-139.92 74.904l-0.07 0.036h-0.0877l-0.0701 0.017h-0.3858l-0.1578 0.035-0.1403 0.018-0.3156 0.0519-0.0701 0.018-0.1052 0.052-0.1579 0.053-0.1403 0.035-0.1577 0.053-0.1578 0.07-0.1579 0.087-0.2805 0.123-0.1403 0.105-0.1402 0.106-0.2805 0.157-0.5787 0.421-0.3155 0.281-0.2805 0.263-0.5261 0.543-1.0521 1.35-1.0168 1.614-0.912 1.841-0.8765 2.086-0.754 2.262-0.7189 2.472-1.1046 5.453-0.7014 6.067-0.263 6.435 0.263 6.452 0.7014 6.067 1.1046 5.453 0.7189 2.472 0.754 2.262 0.8765 2.087 0.2281 0.456-0.035 0.245-0.0877 3.612 0.1402 3.77 0.4208 3.892 0.6838 4.068 0.9644 4.103 1.2274 4.208 1.5079 4.243 1.7884 4.226 2.0164 4.138 2.1918 3.91 2.3141 3.665 2.473 3.401 2.56 3.139 2.647 2.84 2.735 2.543 2.753 2.244 2.771 1.876 2.787 1.526 2.753 1.192 2.735 0.789 2.666 0.421 2.612-0.035 1.245-0.158 1.227-0.263 1.193-0.386 1.174-0.491 1.123-0.5959 1.052-0.7011 0.999-0.8069 0.929-0.894 1.666-2.017 1.42-2.367 1.158-2.647 0.911-2.946 0.649-3.191 0.368-3.419 0.106-3.612-0.141-3.77-0.421-3.892-0.683-4.0681-0.965-4.103-1.227-4.208-1.508-4.244-1.788-4.225-2.017-4.138-2.157-3.91-2.349-3.665-2.455-3.401-2.577-3.139-2.63-2.84-2.718-2.543-2.753-2.209-2.788-1.911-2.788-1.526-2.77-1.192-2.735-0.789-2.683-0.421-2.577 0.035-1.263 0.158-1.2272 0.263-0.8767 0.281-0.0172-0.088-1.1922-3.296-1.1048-3.455-0.9117-3.612-0.7539-3.769-0.5787-3.805-0.333-3.735-0.1578-3.612v-3.524l0.2278-3.367 0.4208-3.208 0.1052-0.491 0.0877-0.491 0.1578-0.929h-0.017799l-0.035-0.036h-0.1759 4.04e-4zm209.07 0.053l-0.035 0.035h-0.016998l0.158 0.929 0.088 0.491 0.105 0.491 0.421 3.209 0.227 3.367v3.524l-0.157 3.612-0.333 3.735-0.579 3.804-0.754 3.77-0.912 3.612-1.104 3.454-1.193 3.297-0.017 0.087-0.877-0.28-1.227-0.263-1.262-0.158-2.578-0.035-2.683 0.421-2.735 0.789-2.77 1.192-2.788 1.525-2.788 1.912-2.753 2.209-2.718 2.542-2.63 2.841-2.577 3.138-2.455 3.402-2.349 3.6639-2.157 3.91-2.016 4.138-1.789 4.226-1.508 4.243-1.227 4.208-0.964 4.103-0.684 4.0681-0.421 3.8929-0.14 3.769 0.105 3.612 0.368 3.42 0.649 3.191 0.911 2.945 1.158 2.648 1.42 2.367 1.666 2.016 0.929 0.895 0.999 0.806 1.052 0.702 1.123 0.596 1.174 0.491 1.193 0.385 1.227 0.263 1.245 0.158 2.613 0.035 2.665-0.42 2.735-0.789 2.753-1.193 2.788-1.525 2.77-1.876 2.753-2.245 2.735-2.542 2.648-2.841 2.56-3.138 2.472-3.402 2.314-3.664 2.192-3.91 2.016-4.138 1.789-4.226 1.508-4.243 1.227-4.208 0.965-4.103 0.683-4.068 0.421-3.893 0.14-3.769-0.087-3.612-0.035-0.246 0.228-0.456 0.876-2.086 0.755-2.262 0.718-2.472 1.105-5.453 0.701-6.067 0.263-6.452-0.263-6.435-0.701-6.067-1.105-5.453-0.718-2.472-0.755-2.262-0.876-2.087-0.912-1.8409-1.017-1.613-1.052-1.35-0.526-0.544-0.281-0.263-0.315-0.28-0.579-0.421-0.28-0.158-0.14-0.105-0.141-0.105-0.28-0.123-0.158-0.088-0.158-0.07-0.158-0.052-0.14-0.035-0.158-0.053-0.105-0.053-0.07-0.017-0.316-0.053-0.14-0.017-0.158-0.035h-0.38599l-0.07-0.018h-0.088013l-0.07-0.035h-0.17599zm-105.71 88.616l-3.682 0.21-3.56 0.562-3.454 0.946-3.314 1.298-3.138 1.613-2.981 1.894c-9.714 10.549-12.701 21.099-17.516 31.648l-2.069 2.928-2.332 2.701-2.578 2.472-2.753 2.209-2.98 1.894-3.139 1.613c-11.441 2.876-18.632 7.169-24.863 11.783l-2.577 2.472-2.332 2.7-2.052 2.946-2.77 5.295-0.561 1.21-1.21 3.507-0.877 3.664-0.561 3.787-0.175 3.91 0.175 3.893 0.561 3.805 0.877 3.664 1.21 3.507 1.508 3.332 1.823 3.173 2.052 2.928 2.332 2.701 2.577 2.472 2.753 2.209 2.981 1.911 3.138 1.596 3.314 1.315c6.521 3.33 12.169 3.394 19.27 0.61395l0.035-0.053 2.069-0.561 3.314-1.315 3.138-1.596 2.998-1.911c18.088-11.653 38.071-18.687 69.224 1.508l2.981 1.911c9.934 6.629 20.398 6.121 31.157 1.613l3.121-1.613 2.999-1.911 2.753-2.21 2.577-2.472 2.314-2.7 2.069-2.928 1.806-3.174 1.508-3.331 1.228-3.507 0.859-3.665 0.561-3.804 0.193-3.893-0.193-3.91-0.561-3.787-0.859-3.665-1.228-3.507-1.508-3.331-1.806-3.174-2.069-2.945-2.314-2.701-2.577-2.472-2.753-2.209-2.999-1.894-11.344-3.296-3.314-1.315-3.139-1.613-2.98-1.894-2.753-2.209-2.577-2.472-2.332-2.701-2.052-2.945-1.823-3.156-8.978-22.724-2.069-2.946-2.314-2.7-2.578-2.473-2.753-2.209-2.98-1.893-3.139-1.613-3.314-1.298-3.454-0.947-3.577-0.561-3.664-0.21z" fill-rule="evenodd" style="fill: rgb(57, 57, 57);"/>
  </g>
</svg>